<svg width="100px" height="100px" xmlns="http://www.w3.org/2000/svg" viewBox="18.040008544921875 -104.73999633789063 463.91998291015625 359.47999267578126" style="background: rgba(0, 0, 0, 0) none repeat scroll 0% 0%;" preserveAspectRatio="xMidYMid"><defs><filter id="editing-hole" x="-100%" y="-100%" width="300%" height="300%"><feFlood flood-color="#000000" result="black"></feFlood><feMorphology operator="dilate" radius="2" in="SourceGraphic" result="erode"></feMorphology><feGaussianBlur in="erode" stdDeviation="4" result="blur"></feGaussianBlur><feOffset in="blur" dx="2" dy="2" result="offset"></feOffset><feComposite operator="atop" in="offset" in2="black" result="merge"></feComposite><feComposite operator="in" in="merge" in2="SourceGraphic" result="inner-shadow"></feComposite></filter></defs><g filter="url(#editing-hole)"><g transform="translate(86.18553924560547, 134.734375)"><path d="M7.61 0L7.61-26.02L22.48-26.02L22.48-84.96L7.61-83.90L7.61-106.91L7.61-106.91Q15.40-106.91 24.43-109.83L24.43-109.83L24.43-109.83Q33.45-112.75 41.95-118.41L41.95-118.41L60.53-118.41L60.53-26.02L75.40-26.02L75.40 0L7.61 0ZM132.22 0L132.22-28.85L83.19-28.85L83.19-53.63L130.27-118.41L169.92-118.41L169.92-53.28L186.91-53.28L186.91-28.67L169.92-28.67L169.92 0L132.22 0ZM109.21-53.28L132.22-53.28L132.22-88.32L109.21-53.28ZM218.59 1.06L218.59 1.06Q209.21 1.06 203.90-4.07L203.90-4.07L203.90-4.07Q198.59-9.20 198.59-16.99L198.59-16.99L198.59-16.99Q198.59-24.96 204.08-29.91L204.08-29.91L204.08-29.91Q209.57-34.87 218.59-34.87L218.59-34.87L218.59-34.87Q227.44-34.87 232.93-29.65L232.93-29.65L232.93-29.65Q238.42-24.43 238.42-16.99L238.42-16.99L238.42-16.99Q238.42-8.67 233.29-3.81L233.29-3.81L233.29-3.81Q228.15 1.06 218.59 1.06L218.59 1.06ZM252.22 0L252.22-26.02L267.09-26.02L267.09-84.96L252.22-83.90L252.22-106.91L252.22-106.91Q260.01-106.91 269.04-109.83L269.04-109.83L269.04-109.83Q278.07-112.75 286.56-118.41L286.56-118.41L305.15-118.41L305.15-26.02L320.02-26.02L320.02 0L252.22 0Z" fill="#4f91a7"></path></g></g><style>text {
  font-size: 64px;
  font-family: Arial Black;
  dominant-baseline: central;
  text-anchor: middle;
}</style></svg>