<?xml version="1.0" ?><svg width="512px" height="512px" viewBox="0 0 512 512" data-name="Layer 1" id="Layer_1" xmlns="http://www.w3.org/2000/svg"><path d="M256,333.61a24.15,24.15,0,1,0,24.15,24.15A24.18,24.18,0,0,0,256,333.61Zm0,37.64a13.49,13.49,0,1,1,13.48-13.49A13.5,13.5,0,0,1,256,371.25Z"/><path d="M426.17,305.63a361.92,361.92,0,0,0-12.39-52.79,5.22,5.22,0,0,0-.73-2.61l-.1-.1c-6.61-20.79-16.2-44.79-29.76-67.34a5.33,5.33,0,0,0-.62-1.85,5.26,5.26,0,0,0-1.55-1.66c-12.79-20.48-29-39.48-49.33-53.46a5.19,5.19,0,0,0-2.45-1.6C309.06,111,284.94,102.59,256,102.59s-53.06,8.39-73.25,21.63a5.09,5.09,0,0,0-2.43,1.6c-20.37,14-36.55,33-49.34,53.47a5.3,5.3,0,0,0-1.54,1.65,5.24,5.24,0,0,0-.61,1.81c-13.57,22.56-23.17,46.58-29.78,67.38l-.1.1a5.22,5.22,0,0,0-.73,2.61,364.24,364.24,0,0,0-12.4,52.79,40.08,40.08,0,0,0-22.53,35.91,5.33,5.33,0,1,0,10.66,0,29.51,29.51,0,1,1,59,0,5.34,5.34,0,0,0,10.67,0,40,40,0,0,0-11.15-27.62,5.24,5.24,0,0,0,.59-1.93c0-.36,4.27-35.3,49.61-69.4,21.43,36.53,30.17,75.65,31.94,84.56a51.19,51.19,0,0,0-10.28,30.61,51.65,51.65,0,1,0,103.3,0,51.13,51.13,0,0,0-10.29-30.61c1.77-8.92,10.49-48,31.93-84.57,44.92,33.8,49.56,68.87,49.63,69.43a5.33,5.33,0,0,0,.59,1.91,39.93,39.93,0,0,0-11.15,27.62,5.34,5.34,0,0,0,10.67,0,29.51,29.51,0,1,1,59,0,5.33,5.33,0,1,0,10.66,0A40.07,40.07,0,0,0,426.17,305.63ZM318,129.79c-12,9.26-37.09,30-46.57,48.49H240.59C231.11,159.76,206,139.05,194,129.79a124.4,124.4,0,0,1,124,0Zm-133.52,6.14c9.9,7.43,40.18,31.24,47.8,49.71a5.32,5.32,0,0,0,4.92,3.3h37.64a5.32,5.32,0,0,0,4.92-3.3c7.61-18.45,37.9-42.27,47.8-49.71,17.35,12.32,31.47,28.61,42.88,46.29-54.68,35.23-76,109.38-82,135.67a50.5,50.5,0,0,0-64.84,0c-6-26.29-27.32-100.44-82-135.67C153,164.53,167.11,148.25,184.46,135.93ZM123.21,306.77a39.72,39.72,0,0,0-19.75-5.4,40.61,40.61,0,0,0-6.27.63,372.2,372.2,0,0,1,9.49-40.58l27.95,17.66C127.34,291.47,124.37,301.46,123.21,306.77Zm17.23-36.63L110,250.88c6-18.63,14.45-39.64,26.06-59.58,16.78,10.88,30.29,25.91,41,42.22C160.21,246,148.5,258.73,140.44,270.14ZM256,398.75a41,41,0,1,1,41-41A41,41,0,0,1,256,398.75ZM335,233.51c10.74-16.29,24.26-31.32,41.05-42.21,11.6,19.94,20,41,26.05,59.58l-30.49,19.26C363.5,258.73,351.78,246,335,233.51Zm53.84,73.26c-1.16-5.31-4.13-15.3-11.42-27.69l27.95-17.66A372.2,372.2,0,0,1,414.81,302a40.61,40.61,0,0,0-6.27-.63A39.72,39.72,0,0,0,388.79,306.77Z"/><path d="M255.43,165.87a24.15,24.15,0,1,0-24.15-24.15A24.16,24.16,0,0,0,255.43,165.87Zm0-37.63a13.49,13.49,0,1,1-13.49,13.48A13.49,13.49,0,0,1,255.43,128.24Z"/></svg>
